<!DOCTYPE svg PUBLIC "-//W3C//DTD SVG 20010904//EN" "http://www.w3.org/TR/2001/REC-SVG-20010904/DTD/svg10.dtd">
<svg version="1.0" xmlns="http://www.w3.org/2000/svg" width="974px" height="168px" viewBox="0 0 9740 1680" preserveAspectRatio="xMidYMid meet">
<g id="layer101" fill="#1f1a17" stroke="none">
 <path d="M329 1655 c-164 -85 -284 -321 -320 -626 -14 -126 -7 -351 16 -467 51 -261 169 -452 324 -526 l66 -31 3478 -3 3477 -2 0 840 0 840 -3497 0 -3498 -1 -46 -24z m3083 -474 c146 -38 229 -95 275 -189 26 -53 28 -65 28 -182 0 -116 -2 -129 -28 -182 -71 -144 -213 -206 -497 -215 -322 -11 -500 54 -580 211 -34 67 -35 72 -35 185 0 104 3 122 26 172 57 122 175 191 371 219 104 15 352 4 440 -19z m-2368 9 c164 -24 239 -99 239 -240 0 -96 -34 -149 -118 -187 -35 -15 -81 -18 -352 -23 -333 -5 -332 -5 -347 -56 -4 -14 0 -30 13 -45 l19 -24 306 -3 305 -3 38 -47 c20 -26 55 -69 76 -95 l39 -48 -408 3 c-398 3 -411 4 -466 26 -104 42 -156 129 -145 240 10 93 64 149 172 177 46 12 118 15 330 15 298 0 315 3 315 58 -1 69 -19 72 -384 72 l-313 0 -64 82 c-35 45 -68 88 -72 95 -7 11 61 13 370 13 208 0 409 -5 447 -10z m596 -94 l0 -105 288 -3 288 -3 78 -38 c118 -59 161 -131 154 -257 -4 -85 -42 -150 -112 -197 -92 -62 -118 -66 -461 -70 l-310 -3 -72 92 -73 93 364 5 c351 5 366 6 393 26 56 42 56 106 0 148 -28 20 -40 21 -398 24 l-369 3 0 194 0 195 115 0 115 0 0 -104z m2460 -1 l0 -105 194 0 194 0 89 104 88 105 160 0 160 1 -127 -127 c-71 -69 -128 -128 -128 -129 0 -2 18 -9 41 -15 135 -41 205 -215 138 -344 -32 -63 -91 -108 -177 -137 -62 -20 -90 -22 -388 -26 l-320 -4 -77 96 -77 95 373 3 c329 3 376 5 403 20 55 30 64 99 18 140 -38 33 -94 38 -451 38 l-353 0 0 195 0 195 120 0 120 0 0 -105z m1520 -190 l0 -295 148 0 147 0 64 -83 c36 -45 69 -88 74 -94 8 -10 -81 -13 -436 -13 l-446 0 -71 93 -72 92 181 3 181 2 0 295 0 295 115 0 115 0 0 -295z m1393 273 c121 -41 170 -105 171 -223 1 -98 -22 -140 -99 -180 l-58 -30 -306 -5 c-346 -6 -354 -7 -349 -68 5 -60 15 -62 347 -62 l293 0 22 -27 c11 -15 45 -58 75 -96 l53 -68 -403 3 c-369 3 -409 5 -459 23 -121 43 -183 157 -149 278 14 52 60 100 121 128 51 23 64 24 354 29 336 6 337 6 332 69 -5 59 -14 61 -372 61 -264 0 -321 2 -330 14 -6 8 -40 51 -75 96 l-63 82 423 -4 c357 -4 432 -7 472 -20z"/>
 <path d="M3000 1013 c-150 -17 -214 -96 -197 -244 9 -71 33 -106 96 -137 50 -24 67 -27 205 -30 234 -6 322 18 364 98 16 32 22 62 22 109 0 125 -52 181 -186 201 -66 9 -231 11 -304 3z"/>
 <path d="M7430 840 l0 -841 703 3 702 3 67 33 c159 78 274 274 325 552 23 130 23 390 0 520 -48 261 -157 458 -301 540 l-51 30 -722 0 -723 0 0 -840z m430 65 l0 -385 -115 0 -115 0 0 385 0 385 115 0 115 0 0 -385z m895 356 c74 -29 156 -83 191 -124 15 -18 41 -61 58 -97 26 -56 30 -76 29 -146 0 -65 -5 -92 -26 -137 -49 -108 -171 -198 -305 -226 -30 -6 -155 -11 -286 -11 l-233 0 -71 93 -70 92 301 5 c292 5 304 6 350 29 26 12 58 37 72 55 23 30 47 107 40 130 -2 6 -6 23 -9 38 -9 41 -55 88 -111 114 -47 22 -62 24 -232 24 l-183 0 0 -145 0 -145 -120 0 -120 0 0 241 0 240 333 -3 c321 -3 334 -4 392 -27z"/>
 <path d="M9360 296 l0 -106 -25 0 c-21 0 -25 -5 -25 -30 l0 -30 80 0 80 0 0 30 c0 25 -4 30 -25 30 -24 0 -24 1 -27 103 l-3 102 -27 3 -28 3 0 -105z"/>
 <path d="M9480 265 l0 -135 39 0 39 0 29 85 28 85 30 -85 c29 -83 30 -85 62 -85 l33 0 0 136 c0 135 0 135 -22 132 -21 -3 -24 -10 -28 -68 l-5 -65 -20 58 c-35 103 -65 102 -101 -4 l-22 -64 -1 73 -1 72 -30 0 -30 0 0 -135z"/>
 </g>
<g id="layer102" fill="#da251d" stroke="none">
 <path d="M7430 840 l0 -841 703 3 702 3 67 33 c159 78 274 274 325 552 23 130 23 390 0 520 -48 261 -157 458 -301 540 l-51 30 -722 0 -723 0 0 -840z m430 65 l0 -385 -115 0 -115 0 0 385 0 385 115 0 115 0 0 -385z m895 356 c74 -29 156 -83 191 -124 15 -18 41 -61 58 -97 26 -56 30 -76 29 -146 0 -65 -5 -92 -26 -137 -49 -108 -171 -198 -305 -226 -30 -6 -155 -11 -286 -11 l-233 0 -71 93 -70 92 301 5 c292 5 304 6 350 29 26 12 58 37 72 55 23 30 47 107 40 130 -2 6 -6 23 -9 38 -9 41 -55 88 -111 114 -47 22 -62 24 -232 24 l-183 0 0 -145 0 -145 -120 0 -120 0 0 241 0 240 333 -3 c321 -3 334 -4 392 -27z"/>
 </g>

</svg>